<?xml version="1.0" encoding="UTF-8"?>
<svg id="Final" xmlns="http://www.w3.org/2000/svg" viewBox="0 0 150 150">
  <defs>
    <style>
      .cls-1 {
        fill: #dd2e44;
      }

      .cls-2 {
        fill: #fdcb58;
      }
    </style>
  </defs>
  <path id="Shape_Bottom" data-name="Shape Bottom" class="cls-1" d="M117.04,32.96c10.78,10.77,17.46,25.64,17.46,42.04,0,30.58-23.19,55.84-52.91,59.13l1.07-4.67c26.75-3.73,47.34-26.68,47.34-54.46,0-15.19-6.17-28.93-16.12-38.88l-11.32,11.32c7.06,7.06,11.44,16.81,11.44,27.56,0,17.47-11.55,32.29-27.41,37.24l8.06-35.24h10.35c1.1,0,2-.9,2-2s-.9-2-2-2h-10.35l-3.28-14.36-3.34,3.34,2.52,11.02h-13.54l-4,4h17.54l-15.54,68-13.02-56.98-3.34,3.34,4.77,20.88c-6.1-1.9-11.56-5.27-15.97-9.68l-11.32,11.32c8.25,8.25,19.1,13.89,31.22,15.58l1.07,4.67c-13.78-1.53-26.14-7.78-35.46-17.08l-5.67,5.67c11.18,11.17,26.24,18.45,43,19.6l.82,3.57c.42,1.82,2.03,3.11,3.9,3.11s3.48-1.29,3.9-3.11l.82-3.57c35.08-2.42,62.78-31.63,62.78-67.32,0-18.64-7.57-35.5-19.79-47.71l-5.67,5.67Z"/>
  <path id="Shape_Top" data-name="Shape Top" class="cls-2" d="M32.96,117.04c-10.78-10.77-17.46-25.64-17.46-42.04,0-30.58,23.19-55.84,52.91-59.13l-1.07,4.67c-26.75,3.73-47.34,26.68-47.34,54.46,0,15.19,6.17,28.93,16.12,38.88l11.32-11.32c-7.06-7.06-11.44-16.81-11.44-27.56,0-17.47,11.55-32.29,27.41-37.24l-8.06,35.24h-10.35c-1.1,0-2,.9-2,2s.9,2,2,2h10.35l3.28,14.36,3.34-3.34-2.52-11.02h13.54l4-4h-17.54L75,5l13.02,56.98,3.34-3.34-4.77-20.88c6.1,1.9,11.56,5.27,15.97,9.68l11.32-11.32c-8.25-8.25-19.1-13.89-31.22-15.58l-1.07-4.67c13.78,1.53,26.14,7.78,35.46,17.08l5.67-5.67c-11.18-11.17-26.24-18.45-43-19.61l-.82-3.57c-.42-1.82-2.03-3.11-3.9-3.11s-3.48,1.29-3.9,3.11l-.82,3.57C35.21,10.11,7.5,39.31,7.5,75c0,18.64,7.57,35.5,19.79,47.71l5.67-5.67Z"/>
</svg>